<svg width="12" height="10" viewBox="0 0 12 10" fill="none" xmlns="http://www.w3.org/2000/svg">
<mask id="path-1-inside-1_9_113" fill="white">
<path d="M4.21622 0L0 3.5V7L4.21622 3.5L7.78378 7L12 3.5V0L7.78378 3.5L4.21622 0Z"/>
</mask>
<path d="M0 3.5L-2.55491 0.422269L-4 1.62188V3.5H0ZM4.21622 0L7.01747 -2.85534L4.43977 -5.38422L1.6613 -3.07773L4.21622 0ZM7.78378 3.5L4.98252 6.35534L7.56023 8.88422L10.3387 6.57773L7.78378 3.5ZM12 0H16V-8.51915L9.44509 -3.07773L12 0ZM12 3.5L14.5549 6.57773L16 5.37812V3.5H12ZM7.78378 7L4.98252 9.85534L7.56023 12.3842L10.3387 10.0777L7.78378 7ZM4.21622 3.5L7.01747 0.644663L4.43977 -1.88422L1.6613 0.422269L4.21622 3.5ZM0 7H-4V15.5191L2.55491 10.0777L0 7ZM2.55491 6.57773L6.77113 3.07773L1.6613 -3.07773L-2.55491 0.422269L2.55491 6.57773ZM1.41496 2.85534L4.98252 6.35534L10.585 0.644663L7.01747 -2.85534L1.41496 2.85534ZM10.3387 6.57773L14.5549 3.07773L9.44509 -3.07773L5.22887 0.422269L10.3387 6.57773ZM8 0V3.5H16V0H8ZM9.44509 0.422269L5.22887 3.92227L10.3387 10.0777L14.5549 6.57773L9.44509 0.422269ZM10.585 4.14466L7.01747 0.644663L1.41496 6.35534L4.98252 9.85534L10.585 4.14466ZM1.6613 0.422269L-2.55491 3.92227L2.55491 10.0777L6.77113 6.57773L1.6613 0.422269ZM4 7V3.5H-4V7H4Z" fill="#1372E8" mask="url(#path-1-inside-1_9_113)"/>
<mask id="path-3-inside-2_9_113" fill="white">
<path d="M4.21622 3L0 6.5V10L4.21622 6.5L7.78378 10L12 6.5V3L7.78378 6.5L4.21622 3Z"/>
</mask>
<path d="M0 6.5L-2.55491 3.42227L-4 4.62188V6.5H0ZM4.21622 3L7.01747 0.144663L4.43977 -2.38422L1.6613 -0.0777309L4.21622 3ZM7.78378 6.5L4.98252 9.35534L7.56023 11.8842L10.3387 9.57773L7.78378 6.5ZM12 3H16V-5.51915L9.44509 -0.0777309L12 3ZM12 6.5L14.5549 9.57773L16 8.37812V6.5H12ZM7.78378 10L4.98252 12.8553L7.56023 15.3842L10.3387 13.0777L7.78378 10ZM4.21622 6.5L7.01747 3.64466L4.43977 1.11578L1.6613 3.42227L4.21622 6.5ZM0 10H-4V18.5191L2.55491 13.0777L0 10ZM2.55491 9.57773L6.77113 6.07773L1.6613 -0.0777309L-2.55491 3.42227L2.55491 9.57773ZM1.41496 5.85534L4.98252 9.35534L10.585 3.64466L7.01747 0.144663L1.41496 5.85534ZM10.3387 9.57773L14.5549 6.07773L9.44509 -0.0777309L5.22887 3.42227L10.3387 9.57773ZM8 3V6.5H16V3H8ZM9.44509 3.42227L5.22887 6.92227L10.3387 13.0777L14.5549 9.57773L9.44509 3.42227ZM10.585 7.14466L7.01747 3.64466L1.41496 9.35534L4.98252 12.8553L10.585 7.14466ZM1.6613 3.42227L-2.55491 6.92227L2.55491 13.0777L6.77113 9.57773L1.6613 3.42227ZM4 10V6.5H-4V10H4Z" fill="#E8E013" mask="url(#path-3-inside-2_9_113)"/>
</svg>
