<svg width="40" height="40" viewBox="0 0 40 40" fill="none" xmlns="http://www.w3.org/2000/svg">
<path d="M0.357143 20C0.357143 31.0457 9.15157 40 20 40C30.8484 40 39.6429 31.0457 39.6429 20C39.6429 8.95433 30.8484 0 20 0C9.15157 0 0.357143 8.95433 0.357143 20Z" fill="#50653E"/>
<path d="M26.0966 12.9852C25.1144 13.3149 24.3651 14.0259 23.8667 15.1037C23.4811 15.9408 23.2484 17 23.1719 18.2519C23.0774 19.8593 23.2738 21.4037 23.3684 22.0186H21.7351L22.0334 15.7296C22.1352 14.1889 21.6514 12.9741 21.2295 12.2259C20.7821 11.4333 20.3201 10.9963 20.2655 10.9482L20.0836 10.7815L19.9054 10.9445C19.9018 10.9482 19.4107 11.3963 18.9414 12.2222C18.5195 12.9704 18.0357 14.1852 18.1376 15.7186L18.4359 22.0112H16.8026C16.8971 21.3926 17.0972 19.8519 16.999 18.2445C16.9262 16.9926 16.6898 15.9333 16.3042 15.0963C15.8095 14.0186 15.0566 13.3037 14.0744 12.9778L13.7179 12.8593V25.2963H18.4322C18.5486 25.7778 18.9196 26.9889 19.9018 27.8852L20.0836 28.0482L20.2655 27.8852C21.2476 26.9889 21.6187 25.7778 21.7351 25.2963H26.4494V12.8667L26.0966 12.9852Z" fill="#FDCD00"/>
<path d="M6.10088 12.737L6.95934 14.4667L6.88659 14.6296L5.04962 15.1222L4.48216 14.8629L4.55492 14.7L6.31186 14.2667L5.4643 12.6407L5.53706 12.4778L6.10088 12.737ZM6.10815 15.0074L7.14122 15.4814L6.91933 15.9814L5.29334 15.237L6.10815 15.0074ZM7.97422 13.5925L7.75236 14.0925L6.71927 13.6185L6.34823 12.8481L7.97422 13.5925Z" fill="#FDCD00"/>
<path d="M6.10452 11.6481L7.1194 10.1777L7.51593 10.463L6.81021 11.4889L8.16336 12.4593L8.89814 11.3963L9.29464 11.6814L8.25071 13.1852L6.10452 11.6481ZM7.34129 11.6556L7.76686 11.0407L8.13793 11.3074L7.71236 11.9222L7.34129 11.6556Z" fill="#FDCD00"/>
<path d="M9.15279 8.69258L8.37436 9.47411L8.03243 9.12226L9.19286 7.95557L10.5787 9.38517L10.1968 9.7704L9.15279 8.69258ZM10.9461 9.25557L11.6809 10.0148L11.299 10.4L10.9061 9.99259L9.74207 11.163L10.1349 11.5704L9.753 11.9556L9.01457 11.1926L9.16007 11.0481C9.1965 10.6407 9.05457 10.1777 8.49079 9.59259L8.8545 9.2296C9.33471 9.72597 9.55293 10.1889 9.58207 10.6259L10.9461 9.25557Z" fill="#FDCD00"/>
<path d="M12.0046 9.13713L11.5718 9.46309L10.0076 7.31495L10.4405 6.98901L12.0046 9.13713Z" fill="#FDCD00"/>
<path d="M11.9646 6.44825L11.9246 5.97048L12.081 5.88159L14.3981 7.68898L13.8961 7.97051L11.9646 6.44825ZM11.9864 6.689L12.5466 7.12604L12.6121 7.78156L13.0631 7.52971L13.4451 7.82971L12.6594 8.27422L12.6994 8.64825L12.1938 8.93342L11.9864 6.689Z" fill="#FDCD00"/>
<path d="M17.5265 6.75197L17.0064 6.88901L16.4752 4.7779L14.9184 5.18531L14.7984 4.70753L16.8754 4.16309L17.5265 6.75197ZM15.966 7.15938L15.4458 7.2964L14.9547 5.34827L15.4749 5.21123L15.966 7.15938Z" fill="#FDCD00"/>
<path d="M18.5122 4.57405L18.836 5.2148L18.6214 5.83702L19.1343 5.80368L19.3525 6.24072L18.4541 6.29998L18.334 6.65554L17.7593 6.69258L18.5122 4.57405ZM18.5923 4.35184L18.7559 3.90368L18.9342 3.89258L20.2764 6.53331L19.7054 6.57035L18.5923 4.35184Z" fill="#FDCD00"/>
<path d="M22.6409 4.98159C22.5863 5.4927 22.1571 5.80011 21.6078 5.73715L21.3277 5.70381L21.3786 5.22974L21.6587 5.25937C21.9134 5.28899 22.0698 5.14826 22.0952 4.91863C22.1207 4.6964 21.9934 4.51863 21.7424 4.4927L21.295 4.44085L21.0585 6.62233L20.5238 6.56307L20.8111 3.90381L21.7933 4.01492C22.3389 4.08159 22.6954 4.46307 22.6409 4.98159Z" fill="#FDCD00"/>
<path d="M23.2374 4.21851L25.3764 4.83332L25.2454 5.30739L23.1101 4.69258L23.2374 4.21851ZM23.8704 5.09258L24.3869 5.24072L23.8522 7.17406L23.3356 7.02591L23.8704 5.09258Z" fill="#FDCD00"/>
<path d="M27.879 6.54809L25.0235 7.61477L24.8671 7.53695L25.0962 7.0592L27.9481 5.99253L28.1081 6.07401L27.879 6.54809ZM25.9256 6.57771L25.2017 6.83327L26.042 5.09253L26.5221 5.33327L25.9256 6.57771ZM26.9259 8.51477L26.4458 8.27404L27.046 7.02957L27.7699 6.77401L26.9259 8.51477Z" fill="#FDCD00"/>
<path d="M27.5444 8.24803L28.0099 8.25545C27.9918 8.57029 28.0936 8.8036 28.3082 8.96658C28.5192 9.12585 28.7593 9.14803 28.8975 8.96287C28.9411 8.89989 28.963 8.82956 28.9521 8.75174L29.4322 8.78134C29.4686 8.96287 29.4322 9.14433 29.3086 9.31102C29.0139 9.71473 28.461 9.71473 28.0172 9.37771C27.6316 9.08505 27.4789 8.66287 27.5444 8.24803ZM28.6392 7.8036L28.9666 8.05174C29.1376 8.18134 29.3122 8.14803 29.4141 8.01102C29.5268 7.85916 29.4868 7.66658 29.3049 7.52956C29.1194 7.38876 28.8902 7.37771 28.6429 7.46287L28.501 7.01842C28.8466 6.84434 29.2613 6.86657 29.6069 7.12953C30.007 7.4332 30.1379 7.92956 29.8542 8.31843C29.5814 8.69247 29.0939 8.71473 28.6974 8.41473L28.3701 8.16658L28.6392 7.8036Z" fill="#FDCD00"/>
<path d="M30.9819 9.19268L30.7091 9.85566L30.1016 10.089L30.4544 10.4668L30.2652 10.9186L29.6432 10.2557L29.2976 10.389L28.9011 9.96308L30.9819 9.19268ZM31.2038 9.11122L31.6476 8.94824L31.7712 9.08155L30.6436 11.8224L30.2471 11.4001L31.2038 9.11122Z" fill="#FDCD00"/>
<path d="M31.0691 12.4853L30.7781 12.026L32.9898 10.5815L33.2808 11.0408L31.0691 12.4853ZM31.9858 13.9445L31.6948 13.4853L32.6514 12.8631L32.1131 12.0112L32.5205 11.7445L33.0589 12.5964L33.9064 12.0445L34.1974 12.5038L31.9858 13.9445Z" fill="#FDCD00"/>
<path d="M35.0304 15.7445L32.2223 14.5556L32.1604 14.3889L32.6479 14.1963L35.4561 15.3815L35.5215 15.5519L35.0304 15.7445ZM33.0225 16.5371L32.8297 16.026L34.0992 15.526L34.8013 15.8371L33.0225 16.5371ZM33.5791 14.4186L32.877 14.1075L34.6558 13.4075L34.8486 13.9186L33.5791 14.4186Z" fill="#FDCD00"/>
<path d="M7.7705 27.3334C8.17064 27.1186 8.61079 27.1371 8.96 27.3297L8.05057 27.8186C7.57407 28.0779 7.43222 28.5704 7.65772 29.0075C7.81414 29.3075 8.07243 29.4482 8.39979 29.4742L8.33793 29.9741C7.86872 29.963 7.454 29.6926 7.22122 29.2445C6.85746 28.5482 7.08299 27.7 7.7705 27.3334ZM9.18186 28.1779C9.05093 27.926 8.83629 27.763 8.63622 27.6963L9.1455 27.4223C9.33464 27.5371 9.50557 27.7149 9.622 27.9445C9.85843 28.4 9.83664 28.9 9.58929 29.3L9.1455 29.0704C9.30914 28.7816 9.33829 28.4779 9.18186 28.1779Z" fill="#FDCD00"/>
<path d="M8.15607 30.7888L8.5235 30.4369C8.82179 30.6888 9.29829 30.5629 9.99307 29.8962L10.0331 29.8555L10.3896 30.2369C9.28371 31.2888 8.63621 31.2369 8.15607 30.7888ZM9.77114 32.4999L9.40379 32.1036L10.9606 30.6073L10.1567 29.7406L10.5096 29.3999L11.6809 30.6629L9.77114 32.4999Z" fill="#FDCD00"/>
<path d="M12.1865 31.7853L12.0628 32.4964L11.5208 32.8594L11.9501 33.1482L11.8627 33.6298L11.1134 33.1224L10.8042 33.3335L10.3241 33.0075L12.1865 31.7853ZM12.3829 31.6594L12.7794 31.4038L12.9286 31.5038L12.4229 34.4298L11.9464 34.1075L12.3829 31.6594Z" fill="#FDCD00"/>
<path d="M15.2566 34.7556C15.0929 35.1852 14.6455 35.3556 14.1726 35.1667L13.0813 34.7333L14.038 32.2407L14.9037 32.5852C15.3511 32.763 15.5694 33.1814 15.4094 33.5926C15.2529 34.0037 14.8128 34.1926 14.3544 34.0148L14.1289 33.926L14.289 33.5074L14.4818 33.5852C14.6819 33.663 14.8383 33.5889 14.9037 33.4222C14.9692 33.2518 14.9001 33.0963 14.7 33.0148L14.3472 32.8741L13.7288 34.4889L14.3036 34.7185C14.5181 34.8037 14.6928 34.7333 14.7655 34.5444C14.8019 34.4518 14.7982 34.3667 14.7619 34.2741L15.2093 34.1222C15.3294 34.3148 15.3439 34.537 15.2566 34.7556Z" fill="#FDCD00"/>
<path d="M16.668 33.7519L16.8389 34.4519L16.4861 35.0074L16.9917 35.0963L17.1045 35.5741L16.2169 35.4223L16.0169 35.7407L15.4494 35.6407L16.668 33.7519ZM16.7953 33.5519L17.0572 33.1519L17.2354 33.1815L17.9411 36.0667L17.3773 35.9704L16.7953 33.5519Z" fill="#FDCD00"/>
<path d="M20.411 34.4296L20.1782 35.1371L19.2034 33.4445L19.8217 33.3926L20.411 34.4296ZM20.8512 35.4149C20.7093 35.8408 20.4365 36.0667 20.0036 36.1037C19.8836 36.1149 19.7563 36.1037 19.6471 36.0852L19.6071 35.6186C19.6981 35.6186 19.7781 35.6149 19.8472 35.6112C20.0546 35.5926 20.2328 35.5037 20.3056 35.2815L20.9603 33.2889L21.5678 33.2371L20.8512 35.4149Z" fill="#FDCD00"/>
<path d="M21.7642 33.1925L22.2844 33.0555L22.9391 35.6444L22.419 35.7815L21.7642 33.1925ZM24.6597 35.1925L24.0523 35.3518L22.7064 34.2444L23.2811 32.7925L23.8776 32.637L23.3102 34.0778L24.6597 35.1925Z" fill="#FDCD00"/>
<path d="M26.3002 32.5036C26.5039 32.974 26.2821 33.4592 25.7764 33.6851L25.5181 33.7999L25.329 33.3629L25.5873 33.248C25.8201 33.1443 25.8892 32.9406 25.7983 32.7295C25.7109 32.5259 25.5145 32.4369 25.2817 32.5406L24.8706 32.7258L25.7364 34.7369L25.2454 34.9555L24.1904 32.5073L25.0926 32.1036C25.5982 31.8776 26.0929 32.0259 26.3002 32.5036Z" fill="#FDCD00"/>
<path d="M26.7586 31.6592L26.6931 31.1852L26.8459 31.0889L29.2612 32.7592L28.7774 33.0703L26.7586 31.6592ZM26.7913 31.8963L27.3769 32.3036L27.4788 32.9555L27.9116 32.6777L28.3081 32.9555L27.5479 33.4444L27.6097 33.8185L27.1223 34.1296L26.7913 31.8963Z" fill="#FDCD00"/>
<path d="M27.7334 29.7631C27.8535 29.9075 27.8316 30.1261 27.6861 30.2482C27.5406 30.3742 27.3261 30.3631 27.206 30.2149C27.0859 30.0705 27.1078 29.8519 27.2533 29.7261C27.3988 29.6038 27.6134 29.6186 27.7334 29.7631ZM28.4028 29.0815C28.5228 29.2261 28.501 29.4445 28.3555 29.5668C28.2099 29.6927 27.9954 29.6816 27.8753 29.5334C27.7553 29.389 27.7771 29.1705 27.9226 29.0445C28.0681 28.9261 28.2827 28.9371 28.4028 29.0815ZM30.1088 31.9927L29.6977 32.3445L28.0026 30.3038L28.4136 29.9519L30.1088 31.9927Z" fill="#FDCD00"/>
<path d="M31.1309 30.9925L30.7854 31.411L28.7811 29.6851L29.1267 29.2665L31.1309 30.9925ZM32.2295 29.6702L31.8839 30.0888L31.0181 29.3443L30.3744 30.1184L30.0033 29.7999L30.6471 29.0258L29.8796 28.3628L30.2252 27.9443L32.2295 29.6702Z" fill="#FDCD00"/>
<path d="M32.9534 28.3777L32.6915 28.8555L30.3998 27.5481L30.6617 27.0703L32.9534 28.3777Z" fill="#FDCD00"/>
<path d="M18.6796 25.6889C18.6286 25.537 18.5959 25.4074 18.5668 25.3037C18.5959 25.4074 18.6323 25.5407 18.6796 25.6889Z" fill="#D7AD06"/>
<path d="M16.6899 16.7556C16.7153 16.8889 16.7408 17.0259 16.7626 17.163C16.7371 17.0222 16.7153 16.8889 16.6899 16.7556Z" fill="#D7AD06"/>
<path d="M18.2504 15.3074C18.2504 15.1704 18.254 15.0407 18.2649 14.9111C18.2576 15.0407 18.254 15.174 18.2504 15.3074Z" fill="#D7AD06"/>
<path d="M16.9008 19.2185C16.9008 18.9074 16.8936 18.5852 16.8754 18.263C16.8571 17.9556 16.8281 17.6556 16.7917 17.374C16.8281 17.6593 16.8571 17.9556 16.8754 18.263C16.8936 18.5889 16.9008 18.9111 16.9008 19.2185Z" fill="#D7AD06"/>
<path d="M18.2758 14.7852C18.2867 14.6593 18.3013 14.5333 18.3194 14.4111C18.3013 14.5296 18.2867 14.6556 18.2758 14.7852Z" fill="#D7AD06"/>
<path d="M18.8324 26.1001C18.8069 26.0408 18.7851 25.9853 18.7633 25.9297C18.7851 25.9853 18.8105 26.0408 18.8324 26.1001Z" fill="#D7AD06"/>
<path d="M18.9561 26.3704C18.9269 26.3075 18.8979 26.2482 18.8724 26.189C18.8979 26.2482 18.9269 26.3112 18.9561 26.3704Z" fill="#D7AD06"/>
<path d="M18.5704 25.3038C18.5632 25.2705 18.5559 25.2371 18.5486 25.2075C18.5559 25.2371 18.5632 25.2705 18.5704 25.3038Z" fill="#D7AD06"/>
<path d="M18.5377 25.1667C18.5411 25.1778 18.5445 25.1926 18.5445 25.2075C18.5445 25.1926 18.5411 25.1815 18.5377 25.1667Z" fill="#D7AD06"/>
<path d="M20.7894 11.7705C20.8149 11.8075 20.8439 11.8483 20.8694 11.889C20.8439 11.8483 20.8149 11.8075 20.7894 11.7705Z" fill="#D7AD06"/>
<path d="M21.2404 12.5149C21.2914 12.6185 21.3459 12.7259 21.3969 12.8408C21.3423 12.7259 21.2914 12.6185 21.2404 12.5149Z" fill="#D7AD06"/>
<path d="M21.3932 12.8408C21.4186 12.9001 21.4441 12.9594 21.4696 13.0186C21.4441 12.9594 21.4223 12.9001 21.3932 12.8408Z" fill="#D7AD06"/>
<path d="M21.5059 13.1147C21.5424 13.2073 21.5787 13.3073 21.6114 13.4073C21.5787 13.3073 21.5424 13.2073 21.5059 13.1147Z" fill="#D7AD06"/>
<path d="M21.2404 12.5149C21.2004 12.4371 21.1604 12.3668 21.124 12.2964C21.0804 12.2223 21.0404 12.1519 20.9967 12.0815C21.0404 12.1482 21.0804 12.2223 21.124 12.2964C21.1604 12.3668 21.2004 12.4408 21.2404 12.5149Z" fill="#D7AD06"/>
<path d="M24.0814 15.2073C23.7067 16.0185 23.4811 17.0481 23.4084 18.2703C23.3066 20.0073 23.5503 21.6666 23.6266 22.1332L23.6485 22.2629H23.5212H21.6042H21.4914L21.4987 22.1481L21.8006 15.7222C21.8989 14.2406 21.4332 13.0739 21.0258 12.3555C20.5893 11.5814 20.1274 11.1555 20.1091 11.1369L20.0874 11.1147L20.0655 11.1369C20.0619 11.1406 19.5963 11.5666 19.1525 12.3555C18.7451 13.0739 18.2831 14.2406 18.3776 15.7185L18.6832 22.1481L18.6905 22.2629H18.5777H16.6534H16.5261L16.548 22.1332C16.6244 21.6666 16.8717 20.0036 16.7662 18.2703C16.6935 17.0481 16.4679 16.0185 16.0933 15.2073C15.624 14.1925 14.922 13.5222 14.0053 13.2147L13.9616 13.1999V25.0555H18.5414H18.6286L18.6469 25.1443C18.7232 25.5147 19.0579 26.7888 20.0655 27.7073L20.0874 27.7295L20.1091 27.7073C21.1168 26.7888 21.4478 25.5147 21.5278 25.1443L21.546 25.0555H21.6333H26.213V13.1999L26.1694 13.2147C25.2526 13.5222 24.5506 14.1925 24.0814 15.2073ZM24.9289 14.2369L25.2745 13.9073C25.5036 13.7185 25.7619 13.5666 26.0384 13.4555V13.6555L24.1941 15.4073C24.3833 14.9739 24.6234 14.5739 24.9289 14.2369ZM23.9868 15.9629L26.0347 14.0147V14.4851L23.8159 16.5962C23.8668 16.3851 23.9213 16.1703 23.9868 15.9629ZM23.7285 17.0406L26.0347 14.8481V15.3185L23.6485 17.5888C23.6704 17.4073 23.6958 17.2222 23.7285 17.0406ZM23.5903 18.2814C23.5976 18.1814 23.6012 18.0814 23.6121 17.9814L26.0384 15.6739V16.1481L23.5794 18.4851C23.583 18.4185 23.583 18.3518 23.5903 18.2814ZM23.5721 19.6777L26.0347 17.3332V17.8036L23.5903 20.1295C23.583 19.9851 23.5757 19.8332 23.5721 19.6777ZM23.6158 20.4666L26.0384 18.1629V18.6332L23.6521 20.8999C23.6376 20.7666 23.6266 20.6185 23.6158 20.4666ZM21.4769 18.8222L18.8214 21.3481L18.7996 20.8962L21.4987 18.3295L21.4769 18.8222ZM21.4587 19.1962L21.4369 19.6925L18.8579 22.1406L18.836 21.6888L21.4587 19.1962ZM21.5169 17.9518L18.7814 20.5555L18.7596 20.1036L21.5387 17.4592L21.5169 17.9518ZM21.5569 17.0851L18.7414 19.7629L18.7196 19.311L21.5787 16.5925L21.5569 17.0851ZM21.5969 16.2147L18.7051 18.9629L18.6832 18.511L21.6187 15.7222L21.5969 16.2147ZM19.298 12.4518C19.5089 12.0739 19.7599 11.7222 20.0509 11.4036L20.0909 11.3666C20.1491 11.4258 20.2256 11.511 20.3165 11.6258L19.1525 12.7332C19.1998 12.6332 19.2507 12.5406 19.298 12.4518ZM18.8906 13.3369L20.4729 11.8332C20.5347 11.9185 20.6039 12.0147 20.6694 12.1185L18.6941 13.9962C18.7487 13.7739 18.8141 13.5518 18.8906 13.3369ZM18.6105 14.4369L20.8112 12.3443C20.8694 12.4406 20.9239 12.5443 20.9821 12.6518L18.5523 14.9629C18.5632 14.7814 18.5814 14.6036 18.6105 14.4369ZM18.5523 15.711C18.545 15.5814 18.5414 15.4555 18.5414 15.3332L21.1022 12.8999C21.1531 13.0073 21.2004 13.1185 21.2441 13.2369L18.5559 15.7888L18.5523 15.711ZM18.5741 16.1295L21.3386 13.4999C21.3786 13.6185 21.415 13.7406 21.4478 13.8666L18.5923 16.5777L18.5741 16.1295ZM18.6105 16.9258L21.5169 14.1629C21.5424 14.2962 21.5678 14.4295 21.586 14.5703L18.6323 17.3777L18.6105 16.9258ZM18.6686 18.1703L18.6469 17.7185L21.6187 14.8925C21.6296 15.0406 21.6369 15.1925 21.6333 15.3481L18.6686 18.1703ZM16.5116 21.0518L14.1399 23.3036V22.8332L16.5552 20.5369C16.5444 20.7185 16.5261 20.8888 16.5116 21.0518ZM16.4643 21.4555C16.4352 21.6777 16.4097 21.8629 16.3879 21.9999L14.1399 24.1369V23.6666L16.4643 21.4555ZM16.5844 20.1518L14.1436 22.4739V22.0036L16.6061 19.6629C16.5989 19.8295 16.5916 19.9925 16.5844 20.1518ZM16.6098 19.2962L14.1399 21.6443V21.1739L16.6098 18.8258C16.6134 18.9851 16.6134 19.1406 16.6098 19.2962ZM16.588 18.2777C16.5916 18.3443 16.5953 18.411 16.5989 18.4814L14.1399 20.8147V20.3443L16.5698 18.0332C16.5771 18.1147 16.5807 18.1962 16.588 18.2777ZM16.5407 17.7036L14.1399 19.9851V19.5147L16.4861 17.2851C16.5079 17.4222 16.5261 17.5629 16.5407 17.7036ZM16.4352 16.9739L14.1399 19.1555V18.6851L16.3552 16.5814C16.3843 16.7073 16.4134 16.8406 16.4352 16.9739ZM16.1733 15.9185C16.2133 16.0406 16.2497 16.1629 16.2824 16.2851L14.1399 18.3258V17.8555L16.1733 15.9185ZM16.0787 15.6518L14.1399 17.4962V17.0258L15.9369 15.3147C15.9878 15.4222 16.0351 15.5369 16.0787 15.6518ZM15.8204 15.0666L14.1399 16.6666V16.1962L15.6422 14.7666C15.7041 14.8629 15.7623 14.9629 15.8204 15.0666ZM15.4967 14.5481L14.1399 15.8369V15.3666L15.2821 14.2814C15.3585 14.3629 15.4276 14.4518 15.4967 14.5481ZM14.1399 13.7036L14.3145 13.5369C14.42 13.5888 14.5255 13.6481 14.6274 13.711L14.1399 14.1739V13.7036ZM14.1399 14.5332L14.8456 13.8666C14.9365 13.9369 15.0239 14.011 15.1039 14.0925L14.1399 15.0073V14.5332ZM14.1399 24.8739V24.4888L16.3115 22.4258L16.3079 22.4443H16.7881L14.2309 24.8703H14.1399V24.8739ZM14.6091 24.8777L17.1664 22.4481H17.6611L15.1039 24.8777H14.6091ZM15.4821 24.8739L18.0394 22.4481H18.5341L15.9769 24.8739H15.4821ZM16.3552 24.8739L21.4186 20.0666L21.3969 20.5592L16.8499 24.8739H16.3552ZM17.2282 24.8739L21.375 20.9369L21.3532 21.4295L17.7266 24.8739H17.2282ZM18.5996 24.8739H18.1049L21.3386 21.8036L21.3168 22.2962L18.5996 24.8739ZM18.8069 25.0369L21.5314 22.4481H22.0261L18.9015 25.4185C18.8469 25.2332 18.8178 25.0962 18.8069 25.0369ZM18.9888 25.6925L22.4044 22.4481H22.8991L19.1234 26.0369C19.0724 25.9147 19.0288 25.7999 18.9888 25.6925ZM20.0874 27.4814C20.0291 27.4222 19.9709 27.3629 19.9164 27.3036L20.8912 26.3777C20.7021 26.7443 20.4401 27.1369 20.0874 27.4814ZM21.1604 25.7592L19.749 27.1036C19.6763 27.011 19.6108 26.9185 19.5454 26.8258L21.3532 25.1073C21.3023 25.3258 21.2404 25.5443 21.1604 25.7592ZM19.4071 26.5999C19.3453 26.4962 19.2907 26.3888 19.2398 26.2851L23.2811 22.4481H23.7758L19.4071 26.5999ZM21.5933 24.8739L26.0347 20.6555V21.1258L22.0916 24.8739H21.5933ZM23.7831 21.9666L26.0347 19.8258V20.2962L23.8522 22.3703L23.834 22.2703C23.834 22.2666 23.8122 22.1592 23.7831 21.9666ZM26.0347 24.8739H25.9584L26.0347 24.8036V24.8739ZM26.0347 24.4481L25.5837 24.8777H25.089L26.0384 23.9777V24.4481H26.0347ZM26.0347 23.6185L24.7106 24.8777H24.2159L26.0384 23.1481V23.6185H26.0347ZM26.0347 22.7851L23.8376 24.8739H23.3429L26.0384 22.3147V22.7851H26.0347ZM26.0384 21.9555L22.9646 24.8739H22.4699L26.0384 21.4851V21.9555ZM26.0384 19.4666L23.7394 21.6518C23.7213 21.5258 23.7031 21.3851 23.6885 21.2295L26.0384 18.9962V19.4666ZM26.0384 16.9777L23.5649 19.3295C23.5649 19.1739 23.5649 19.0185 23.5685 18.8555L26.0384 16.5073V16.9777Z" fill="#D7AD06"/>
<path d="M20.7094 11.6592C20.7349 11.6962 20.7603 11.7295 20.7894 11.7702C20.7603 11.7332 20.7349 11.6962 20.7094 11.6592Z" fill="#D7AD06"/>
<path d="M20.633 11.5593C20.6584 11.5926 20.6839 11.6259 20.7094 11.6593C20.6839 11.6259 20.6584 11.5926 20.633 11.5593Z" fill="#D7AD06"/>
<path d="M18.7414 12.9297C18.7669 12.8705 18.7924 12.8112 18.8178 12.7556C18.7924 12.8149 18.7669 12.8705 18.7414 12.9297Z" fill="#D7AD06"/>
<path d="M20.8694 11.8889C20.8985 11.9296 20.924 11.9742 20.9531 12.0149C20.924 11.9742 20.8985 11.9296 20.8694 11.8889Z" fill="#D7AD06"/>
<path d="M18.3413 14.2888C18.3631 14.1703 18.3849 14.0555 18.4104 13.9407C18.3849 14.0555 18.3595 14.1703 18.3413 14.2888Z" fill="#D7AD06"/>
</svg>
