<svg aria-hidden="true" style="position:absolute;width:0;height:0;overflow:hidden" xmlns="http://www.w3.org/2000/svg"><defs><symbol id="icon-media_sprotyv" viewBox="0 0 32 32"><path d="M0 0h32v32H0V0z"/></symbol><symbol id="icon-flag1" viewBox="0 0 38 32"><path fill="#1372e8" style="fill:var(--color1, #1372e8)" d="m0 11.2-8.176-9.849L-12.8 5.19v6.01H0zM13.492 0l8.964-9.137-8.249-8.092-8.891 7.381L13.492.001zm11.416 11.2-8.964 9.137 8.249 8.092 8.891-7.381-8.176-9.849zM38.4 0h12.8v-27.261L30.224-9.848 38.4.001zm0 11.2 8.176 9.849L51.2 17.21V11.2H38.4zM24.908 22.4l-8.964 9.137 8.249 8.092 8.891-7.381-8.176-9.849zM13.492 11.2l8.964-9.137-8.249-8.092-8.891 7.381 8.176 9.849zM0 22.4h-12.8v27.261L8.176 32.249 0 22.4zm8.176-1.351 13.492-11.2L5.317-9.848l-13.492 11.2L8.176 21.049zM4.528 9.137l11.416 11.2L33.872 2.063l-11.416-11.2L4.528 9.137zm28.556 11.912 13.492-11.2L30.225-9.848l-13.492 11.2 16.351 19.697zM25.6 0v11.2h25.6V0H25.6zm4.624 1.351-13.492 11.2 16.351 19.697 13.492-11.2L30.224 1.351zm3.648 11.912-11.416-11.2L4.528 20.337l11.416 11.2 17.928-18.274zM5.316 1.351l-13.492 11.2L8.175 32.248l13.492-11.2L5.316 1.351zM12.8 22.4V11.2h-25.6v11.2h25.6z"/><path fill="#e8e013" style="fill:var(--color2, #e8e013)" d="m0 20.8-8.176-9.849-4.624 3.839v6.01H0zM13.492 9.6 22.456.463l-8.249-8.092L5.316-.248l8.176 9.849zm11.416 11.2-8.964 9.137 8.249 8.092 8.891-7.381-8.176-9.849zM38.4 9.6h12.8v-27.261L30.224-.248 38.4 9.601zm0 11.2 8.176 9.849L51.2 26.81V20.8H38.4zM24.908 32l-8.964 9.137 8.249 8.092 8.891-7.381-8.176-9.849zM13.492 20.8l8.964-9.137-8.249-8.092-8.891 7.381 8.176 9.849zM0 32h-12.8v27.261L8.176 41.849 0 32zm8.176-1.351 13.492-11.2L5.317-.248l-13.492 11.2L8.176 30.649zM4.528 18.737l11.416 11.2 17.928-18.274L22.456.463 4.528 18.737zm28.556 11.912 13.492-11.2L30.225-.248l-13.492 11.2 16.351 19.697zM25.6 9.6v11.2h25.6V9.6H25.6zm4.624 1.351-13.492 11.2 16.351 19.697 13.492-11.2-16.351-19.697zm3.648 11.912-11.416-11.2L4.528 29.937l11.416 11.2 17.928-18.274zM5.316 10.951l-13.492 11.2L8.175 41.848l13.492-11.2L5.316 10.951zM12.8 32V20.8h-25.6V32h25.6z"/></symbol><symbol id="icon-flag2" viewBox="0 0 35 32"><path fill="#1372e8" style="fill:var(--color1, #1372e8)" d="M28.8 17.6c0 7.953-6.447 14.4-14.4 14.4S0 25.553 0 17.6 6.447 3.2 14.4 3.2s14.4 6.447 14.4 14.4z"/><path fill="#e8e013" style="fill:var(--color2, #e8e013)" d="M28.8 17.6c0 7.953-6.447 14.4-14.4 14.4S0 25.553 0 17.6h28.8z"/></symbol><symbol id="icon-media" viewBox="0 0 32 32"><path fill="#50653e" style="fill:var(--color3, #50653e)" d="M.286 16c0 8.837 7.036 16 15.714 16s15.714-7.163 15.714-16S24.678 0 16 0 .286 7.163.286 16z"/><path fill="#fdcd00" style="fill:var(--color4, #fdcd00)" d="M20.877 10.388c-.786.264-1.385.833-1.784 1.695-.308.67-.495 1.517-.556 2.519-.076 1.286.082 2.521.157 3.013h-1.307l.239-5.031a5.033 5.033 0 0 0-.643-2.803c-.358-.634-.728-.984-.771-1.022l-.146-.133-.143.13c-.003.003-.396.361-.771 1.022a5.007 5.007 0 0 0-.643 2.797l.239 5.034h-1.307c.076-.495.236-1.727.157-3.013-.058-1.002-.247-1.849-.556-2.519-.396-.862-.998-1.434-1.784-1.695l-.285-.095v9.95h3.771c.093.385.39 1.354 1.176 2.071l.145.13.146-.13c.786-.717 1.083-1.686 1.176-2.071h3.771v-9.944l-.282.095zM4.881 10.19l.687 1.384-.058.13-1.47.394-.454-.207.058-.13 1.406-.347-.678-1.301.058-.13.451.207zm.006 1.816.826.379-.178.4-1.301-.596.652-.184zm1.492-1.132-.178.4-.826-.379-.297-.616 1.301.596zM4.884 9.318l.812-1.176.317.228-.565.821 1.083.776.588-.85.317.228-.835 1.203-1.717-1.23zm.989.006.34-.492.297.213-.34.492-.297-.213zM7.322 6.954l-.623.625-.274-.281.928-.933 1.109 1.144-.306.308-.835-.862zm1.435.45.588.607-.306.308-.314-.326-.931.936.314.326-.306.308-.591-.61.116-.116c.029-.326-.084-.696-.535-1.164l.291-.29c.384.397.559.767.582 1.117l1.091-1.096zM9.604 7.31l-.346.261-1.251-1.718.346-.261L9.604 7.31zM9.572 5.159l-.032-.382.125-.071 1.854 1.446-.402.225-1.545-1.218zm.017.192.448.35.052.524.361-.201.306.24-.629.356.032.299-.404.228-.166-1.796zM14.021 5.402l-.416.11-.425-1.689-1.245.326-.096-.382 1.662-.436.521 2.071zm-1.248.326-.416.11-.393-1.559.416-.11.393 1.559zM14.81 3.659l.259.513-.172.498.41-.027.175.35-.719.047-.096.284-.46.03.602-1.695zm.064-.178.131-.359.143-.009 1.074 2.113-.457.03-.89-1.775zM18.113 3.985c-.044.409-.387.655-.826.604l-.224-.027.041-.379.224.024c.204.024.329-.089.349-.273.02-.178-.081-.32-.282-.341l-.358-.041-.189 1.745-.428-.047.23-2.127.786.089c.436.053.722.359.678.773zM18.59 3.375l1.711.492-.105.379-1.708-.492.102-.379zm.506.699.413.119-.428 1.547-.413-.119.428-1.547zM22.303 5.238l-2.284.853-.125-.062.183-.382 2.282-.853.128.065-.183.379zm-1.563.024-.579.204.672-1.393.384.193-.477.996zm.801 1.55-.384-.193.48-.996.579-.204-.675 1.393zM22.036 6.598l.372.006c-.014.252.067.439.239.569.169.127.361.145.471-.003a.236.236 0 0 0 .044-.169l.384.024a.52.52 0 0 1-.099.424c-.236.323-.678.323-1.033.053a.931.931 0 0 1-.378-.904zm.875-.355.262.199c.137.104.276.077.358-.033.09-.122.058-.276-.087-.385-.148-.113-.332-.121-.53-.053l-.114-.356a.824.824 0 0 1 .885.089c.32.243.425.64.198.951-.218.299-.608.317-.925.077l-.262-.199.215-.29zM24.786 7.354l-.218.53-.486.187.282.302-.151.361-.498-.53-.276.107-.317-.341 1.665-.616zm.177-.065.355-.13.099.107-.902 2.193-.317-.338.765-1.831zM24.855 9.988l-.233-.367 1.769-1.156.233.367-1.769 1.156zm.734 1.168-.233-.367.765-.498-.431-.682.326-.213.431.682.678-.442.233.367-1.769 1.153zM28.024 12.596l-2.246-.951-.05-.133.39-.154 2.247.948.052.136-.393.154zm-1.606.634-.154-.409 1.016-.4.562.249-1.423.56zm.445-1.695-.562-.249 1.423-.56.154.409-1.016.4zM6.216 21.867a.987.987 0 0 1 .952-.003l-.728.391c-.381.207-.495.601-.314.951.125.24.332.353.594.373l-.05.4c-.375-.009-.707-.225-.893-.584-.291-.557-.111-1.236.439-1.529zm1.13.675a.785.785 0 0 0-.436-.385l.407-.219c.151.092.288.234.381.418.189.364.172.764-.026 1.084l-.355-.184c.131-.231.154-.474.029-.714zM6.525 24.631l.294-.282c.239.202.62.101 1.176-.433l.032-.033.285.305c-.885.842-1.403.8-1.787.442zM7.817 26l-.294-.317 1.245-1.197-.643-.693.282-.273.937 1.01L7.816 26zM9.749 25.428l-.099.569-.434.29.343.231-.07.385-.599-.406-.247.169-.384-.261 1.49-.978zm.157-.1.317-.204.119.08-.405 2.341-.381-.258.349-1.958zM12.205 27.804c-.131.344-.489.48-.867.329l-.873-.347.765-1.994.693.276c.358.142.533.477.405.806-.125.329-.477.48-.844.338l-.18-.071.128-.335.154.062c.16.062.285.003.338-.13.052-.136-.003-.261-.163-.326l-.282-.113-.495 1.292.46.184c.172.068.311.012.37-.139a.28.28 0 0 0-.003-.216l.358-.122a.547.547 0 0 1 .038.507zM13.334 27.002l.137.56-.282.444.404.071.09.382-.71-.121-.16.255-.454-.08.975-1.511zm.102-.16.21-.32.143.024.565 2.308-.451-.077-.466-1.935zM16.329 27.544l-.186.566-.78-1.354.495-.042.471.83zm.352.788c-.114.341-.332.521-.678.551-.096.009-.198 0-.285-.015l-.032-.373c.073 0 .137-.003.192-.006.166-.015.308-.086.367-.264l.524-1.594.486-.041-.573 1.742zM17.411 26.554l.416-.11.524 2.071-.416.11-.524-2.071zm2.317 1.6-.486.127-1.077-.886.46-1.162.477-.124-.454 1.153 1.08.892zM21.04 26.003c.163.376-.014.764-.419.945l-.207.092-.151-.35.207-.092c.186-.083.242-.246.169-.415-.07-.163-.227-.234-.413-.151l-.329.148.693 1.609-.393.175-.844-1.959.722-.323c.404-.181.8-.062.966.32zM21.407 25.327l-.052-.379.122-.077 1.932 1.336-.387.249-1.615-1.129zm.026.19.468.326.082.522.346-.222.317.222-.608.391.049.299-.39.249-.265-1.787zM22.187 23.81a.277.277 0 0 1-.038.388.265.265 0 0 1-.384-.027.281.281 0 0 1 .038-.391.27.27 0 0 1 .384.03zm.535-.545a.277.277 0 0 1-.038.388.265.265 0 0 1-.384-.027.281.281 0 0 1 .038-.391.273.273 0 0 1 .384.03zm1.365 2.329-.329.281-1.356-1.633.329-.282 1.356 1.633zM24.905 24.794l-.276.335-1.603-1.381.276-.335 1.603 1.381zm.879-1.058-.276.335-.693-.596-.515.619-.297-.255.515-.619-.614-.53.276-.335 1.603 1.381zM26.363 22.702l-.21.382-1.833-1.046.21-.382 1.833 1.046z"/><path fill="#d7ad06" style="fill:var(--color5, #d7ad06)" d="M14.944 20.551c-.041-.122-.067-.225-.09-.308.023.083.052.19.09.308zM13.352 13.404c.02.107.041.216.058.326l-.058-.326zM14.6 12.246zM13.521 15.375a10.685 10.685 0 0 0 0 0zM14.621 11.828zM15.066 20.88a4.33 4.33 0 0 1-.055-.136c.017.044.038.089.055.136zM15.165 21.096c-.023-.05-.047-.098-.067-.145.02.047.044.098.067.145zM14.856 20.243l-.017-.077.017.077zM14.83 20.133a.109.109 0 0 1 .005.033c0-.012-.003-.021-.005-.033zM16.632 9.416c.02.03.044.062.064.095-.02-.033-.044-.065-.064-.095zM16.992 10.012c.041.083.084.169.125.261-.044-.092-.084-.178-.125-.261zM17.115 10.273l.061.142c-.02-.047-.038-.095-.061-.142zM17.205 10.492zM16.992 10.012c-.032-.062-.064-.118-.093-.175-.035-.059-.067-.116-.102-.172.035.053.067.113.102.172l.093.175z"/><path fill="#d7ad06" style="fill:var(--color5, #d7ad06)" d="M19.265 12.166c-.3.649-.48 1.473-.538 2.45-.081 1.39.114 2.717.175 3.09l.018.104h-1.726l.006-.092.242-5.141a4.8 4.8 0 0 0-.62-2.693c-.349-.619-.719-.96-.733-.975l-.017-.018-.018.018c-.003.003-.375.344-.73.975a4.824 4.824 0 0 0-.62 2.69l.244 5.144.006.092h-1.732l.018-.104c.061-.373.259-1.704.175-3.09-.058-.978-.239-1.801-.538-2.45-.375-.812-.937-1.348-1.67-1.594l-.035-.012v9.484h3.734l.015.071c.061.296.329 1.316 1.135 2.05l.018.018.017-.018c.806-.735 1.071-1.754 1.135-2.05l.015-.071h3.734V10.56l-.035.012c-.733.246-1.295.782-1.67 1.594zm.678-.776.276-.264c.183-.151.39-.273.611-.361v.16l-1.475 1.401c.151-.347.343-.667.588-.936zm-.754 1.38 1.638-1.559v.376l-1.775 1.689c.041-.169.084-.341.137-.507zm-.206.862 1.845-1.754v.376l-1.909 1.816c.018-.145.038-.293.064-.439zm-.111.993c.006-.08.009-.16.017-.24l1.941-1.846v.379l-1.967 1.87c.003-.053.003-.107.009-.163zm-.014 1.117 1.97-1.876v.376l-1.956 1.861a13.067 13.067 0 0 1-.015-.361zm.035.631 1.938-1.843v.376l-1.909 1.813c-.012-.107-.02-.225-.029-.347zm-1.711-1.315-2.124 2.021-.017-.362 2.159-2.053-.017.394zm-.015.299-.017.397-2.063 1.958-.018-.361 2.098-1.994zm.047-.996-2.188 2.083-.017-.362 2.223-2.116-.017.394zm.032-.693-2.252 2.142-.017-.362 2.287-2.175-.017.394zm.032-.696-2.313 2.199-.018-.362 2.348-2.231-.017.394zm-1.84-3.011c.169-.302.37-.584.602-.839l.032-.03c.047.047.108.116.18.207l-.931.886c.038-.08.079-.154.116-.225zm-.326.709 1.266-1.203c.049.068.105.145.157.228l-1.58 1.502c.044-.178.096-.356.157-.527zm-.224.88 1.761-1.674c.047.077.09.16.137.246l-1.944 1.849a3.71 3.71 0 0 1 .047-.421zm-.046 1.019a5.23 5.23 0 0 1-.009-.302l2.049-1.947c.041.086.079.175.114.27l-2.151 2.042-.003-.062zm.017.335 2.212-2.104c.032.095.061.193.087.293l-2.284 2.169-.015-.359zm.029.637 2.325-2.21c.02.107.041.213.055.326l-2.363 2.246-.017-.362zm.047.995-.017-.361 2.377-2.261c.009.118.015.24.012.364l-2.372 2.258zm-1.726 2.305-1.897 1.801v-.376l1.932-1.837c-.009.145-.023.282-.035.412zm-.038.323c-.023.178-.044.326-.061.436l-1.798 1.71v-.376l1.86-1.769zm.097-1.043-1.953 1.858v-.376l1.97-1.873-.017.391zm.02-.684-1.976 1.878v-.376l1.976-1.878c.003.127.003.252 0 .376zm-.018-.815.009.163-1.967 1.867v-.376l1.944-1.849c.006.065.009.13.015.196zm-.037-.459-1.921 1.825v-.376l1.877-1.784c.017.11.032.222.044.335zm-.085-.584-1.836 1.745v-.376l1.772-1.683c.023.101.047.207.064.314zm-.209-.844c.032.098.061.196.087.293l-1.714 1.633v-.376l1.627-1.55zm-.076-.214-1.551 1.476v-.376l1.438-1.369c.041.086.079.178.113.27zm-.207-.468-1.344 1.28v-.376l1.202-1.144c.05.077.096.157.143.24zm-.259-.415-1.085 1.031v-.376l.914-.868c.061.065.116.136.172.213zm-1.085-.675.14-.133c.084.042.169.089.25.139l-.39.37v-.376zm0 .664.565-.533c.073.056.143.116.207.181l-.771.732v-.379zm0 8.272v-.308l1.737-1.65-.003.015h.384l-2.046 1.941h-.073v.003zm.375.003 2.046-1.944h.396l-2.046 1.944h-.396zm.699-.003 2.046-1.941h.396l-2.046 1.941h-.396zm.698 0 4.051-3.846-.017.394-3.638 3.452h-.396zm.699 0 3.317-3.15-.017.394-2.901 2.756h-.399zm1.097 0h-.396l2.587-2.456-.017.394-2.174 2.062zm.166.131 2.18-2.071h.396l-2.5 2.376a3.231 3.231 0 0 1-.076-.305zm.145.524 2.732-2.596h.396l-3.021 2.871a7.296 7.296 0 0 1-.108-.276zm.879 1.431a6.011 6.011 0 0 1-.137-.142l.78-.741a3.447 3.447 0 0 1-.643.883zm.858-1.378-1.129 1.076a5.228 5.228 0 0 1-.163-.222l1.446-1.375c-.041.175-.09.35-.154.522zm-1.402.673a3.845 3.845 0 0 1-.134-.252l3.233-3.07h.396l-3.495 3.321zm1.749-1.381 3.553-3.375v.376l-3.154 2.998h-.399zm1.751-2.326 1.801-1.713v.376l-1.746 1.659-.015-.08c0-.003-.017-.089-.041-.243zm1.802 2.326h-.061l.061-.056v.056zm0-.341-.361.344h-.396l.76-.72v.376h-.003zm0-.663-1.059 1.007h-.396l1.458-1.384v.376h-.003zm0-.667-1.758 1.671h-.396l2.156-2.047v.376h-.003zm.003-.664-2.459 2.335h-.396l2.855-2.711v.376zm0-1.991-1.839 1.748a7.905 7.905 0 0 1-.041-.338l1.88-1.787v.376zm0-1.991-1.979 1.881c0-.124 0-.249.003-.379l1.976-1.879v.376z"/><path fill="#d7ad06" style="fill:var(--color5, #d7ad06)" d="M16.568 9.327c.02.03.041.056.064.089a1.645 1.645 0 0 1-.064-.089zM16.506 9.247l.061.08-.061-.08zM14.993 10.344a6.37 6.37 0 0 1 .061-.139l-.061.139zM16.696 9.511l.067.101-.067-.101zM14.673 11.431c.017-.095.035-.187.055-.278-.02.092-.041.184-.055.278z"/></symbol></defs></svg>